# xmcd
# Copyright (C) 1995-1998 Ti Kan
#
# Track frame offsets:
#       150
#       6292
#       21490
#       35326
#       55032
#       71537
#       78813
#       88498
#       96691
#       123010
#       140277
#       164665
#
# Disc length: 2459 seconds
#
# Revision: 0
# Processed by: cddbd v1.5.2PL0 Copyright (c) Steve Scherf et al.
# Submitted via: CD-Import v1.0
#
DISCID=9f09990c
DTITLE=Deerhunter - Microcastle
DYEAR=2009
DGENRE=
TTITLE0=Cover Me (Slowly)
TTITLE1=Agoraphobia
TTITLE2=Never Stops
TTITLE3=Little Kids
TTITLE4=Microcastle
TTITLE5=Calvary Scars
TTITLE6=Green Jacket
TTITLE7=Activa
TTITLE8=Nothing Ever Happened
TTITLE9=Saved By Old Times
TTITLE10=Neither Of Us, Uncertainly
TTITLE11=Twilight At Carbon Lake
EXTD=
EXTT0=
EXTT1=
EXTT2=
EXTT3=
EXTT4=
EXTT5=
EXTT6=
EXTT7=
EXTT8=
EXTT9=
EXTT10=
EXTT11=
PLAYORDER=
